<svg width="25" height="25" viewBox="0 0 25 25" fill="none" xmlns="http://www.w3.org/2000/svg">
<rect y="25" width="25" height="25" rx="5" transform="rotate(-90 0 25)" fill="url(#paint0_linear_8_175)"/>
<path d="M10.85 15.4436L5 12.5984C5 12.0325 5.20544 11.4897 5.57114 11.0896C5.93683 10.6894 6.43282 10.4646 6.94999 10.4646H9.54997V6.43868C9.54784 6.23247 9.5867 6.02822 9.66386 5.84008C9.74103 5.65194 9.85465 5.48441 9.99685 5.34909C10.1391 5.21377 10.3065 5.11391 10.4874 5.05641C10.6684 4.99891 10.8586 4.98516 11.045 5.01611L16.8949 5.99768C17.2049 6.04913 17.4875 6.22143 17.6905 6.48285C17.8936 6.74427 18.0035 7.07718 17.9999 7.42026V15.4436M10.85 15.4436H17.9999M10.85 15.4436V17.5774C10.85 17.9547 10.9869 18.3166 11.2307 18.5833C11.4745 18.8501 11.8052 19 12.15 19H16.6999C17.0447 19 17.3754 18.8501 17.6192 18.5833C17.863 18.3166 17.9999 17.9547 17.9999 17.5774V15.4436" stroke="white" stroke-width="1.5" stroke-linecap="round" stroke-linejoin="round"/>
<defs>
<linearGradient id="paint0_linear_8_175" x1="25" y1="37.5" x2="0" y2="37.5" gradientUnits="userSpaceOnUse">
<stop stop-color="#12B398"/>
<stop offset="1" stop-color="#11A38B"/>
</linearGradient>
</defs>
</svg>
