<svg width="22" height="23" viewBox="0 0 22 23" fill="none" xmlns="http://www.w3.org/2000/svg">
<path d="M2.75 5.75H4.58333H19.25" stroke="black" stroke-opacity="0.5" stroke-width="2" stroke-linecap="round" stroke-linejoin="round"/>
<path d="M17.4166 5.75002V19.1667C17.4166 19.675 17.2234 20.1625 16.8796 20.522C16.5358 20.8814 16.0695 21.0834 15.5833 21.0834H6.41659C5.93036 21.0834 5.46404 20.8814 5.12022 20.522C4.77641 20.1625 4.58325 19.675 4.58325 19.1667V5.75002M7.33325 5.75002V3.83335C7.33325 3.32502 7.52641 2.83751 7.87022 2.47807C8.21404 2.11862 8.68036 1.91669 9.16659 1.91669H12.8333C13.3195 1.91669 13.7858 2.11862 14.1296 2.47807C14.4734 2.83751 14.6666 3.32502 14.6666 3.83335V5.75002" stroke="black" stroke-opacity="0.5" stroke-width="2" stroke-linecap="round" stroke-linejoin="round"/>
<path d="M9.16675 10.5417V16.2917" stroke="black" stroke-opacity="0.5" stroke-width="2" stroke-linecap="round" stroke-linejoin="round"/>
<path d="M12.8333 10.5417V16.2917" stroke="black" stroke-opacity="0.5" stroke-width="2" stroke-linecap="round" stroke-linejoin="round"/>
</svg>
