<svg width="21" height="19" viewBox="0 0 21 19" fill="none" xmlns="http://www.w3.org/2000/svg">
<path d="M15.3733 1.71026C15.625 1.48508 15.9238 1.30646 16.2526 1.18459C16.5814 1.06272 16.9338 1 17.2897 1C17.6457 1 17.9981 1.06272 18.3269 1.18459C18.6557 1.30646 18.9545 1.48508 19.2062 1.71026C19.4579 1.93544 19.6575 2.20276 19.7937 2.49697C19.9299 2.79118 20 3.10651 20 3.42497C20 3.74342 19.9299 4.05875 19.7937 4.35296C19.6575 4.64717 19.4579 4.9145 19.2062 5.13968L6.27021 16.714L1 18L2.43733 13.2845L15.3733 1.71026Z" stroke="black" stroke-opacity="0.5" stroke-width="2" stroke-linecap="round" stroke-linejoin="round"/>
</svg>
