<svg width="72" height="32" viewBox="0 0 72 32" fill="none" xmlns="http://www.w3.org/2000/svg">
<rect x="46" y="25.5" width="22" height="21" rx="5" transform="rotate(-90 46 25.5)" fill="url(#paint0_linear_17_31)"/>
<path d="M54.914 17.9284L50 15.4247C50 14.9267 50.1726 14.4491 50.4798 14.0969C50.7869 13.7448 51.2036 13.5469 51.638 13.5469H53.822V10.0041C53.8202 9.82268 53.8528 9.64294 53.9176 9.47738C53.9825 9.31182 54.0779 9.16439 54.1974 9.04531C54.3168 8.92623 54.4574 8.83834 54.6094 8.78775C54.7615 8.73715 54.9213 8.72505 55.0778 8.75228L59.9917 9.61607C60.2521 9.66134 60.4895 9.81296 60.66 10.043C60.8306 10.2731 60.9229 10.566 60.9199 10.8679V17.9284M54.914 17.9284H60.9199M54.914 17.9284V19.8062C54.914 20.1383 55.029 20.4567 55.2338 20.6914C55.4386 20.9262 55.7163 21.0581 56.006 21.0581H59.8279C60.1176 21.0581 60.3953 20.9262 60.6001 20.6914C60.8049 20.4567 60.9199 20.1383 60.9199 19.8062V17.9284" stroke="white" stroke-width="1.5" stroke-linecap="round" stroke-linejoin="round"/>
<path d="M3.288 4.184H17.208V6.704H3.288V4.184ZM0.984 13.64H21.096V16.232H0.984V13.64ZM9.312 15.464H12.528V25.136H9.312V15.464ZM15.576 4.184H18.72V6.152C18.72 6.952 18.704 7.8 18.672 8.696C18.656 9.592 18.592 10.576 18.48 11.648C18.368 12.704 18.16 13.888 17.856 15.2L14.736 14.816C15.152 12.976 15.392 11.368 15.456 9.992C15.536 8.6 15.576 7.32 15.576 6.152V4.184Z" fill="#12B397"/>
<path d="M23.0381 13.64H43.1501V16.184H23.0381V13.64ZM31.5341 10.496H34.7261V14.72H31.5341V10.496ZM25.1981 18.008H40.5821V25.184H37.3901V20.552H25.1981V18.008ZM33.7421 9.008H41.3741V11.528H33.7421V9.008ZM33.7421 3.752H41.3021V6.272H36.9101V9.92H33.7421V3.752ZM24.8621 3.752H32.4941V6.272H28.0541V9.92H24.8621V3.752ZM24.8621 9.032H26.2301C27.0621 9.032 27.8301 9.024 28.5341 9.008C29.2541 8.976 29.9421 8.928 30.5981 8.864C31.2701 8.784 31.9581 8.68 32.6621 8.552L32.9261 11.024C32.1901 11.168 31.4701 11.28 30.7661 11.36C30.0781 11.424 29.3661 11.472 28.6301 11.504C27.8941 11.52 27.0941 11.528 26.2301 11.528H24.8621V9.032Z" fill="#12B398"/>
<defs>
<linearGradient id="paint0_linear_17_31" x1="68" y1="36" x2="46" y2="36" gradientUnits="userSpaceOnUse">
<stop stop-color="#12B398"/>
<stop offset="1" stop-color="#11A38B"/>
</linearGradient>
</defs>
</svg>
